<svg id="レイヤー_1" data-name="レイヤー 1" xmlns="http://www.w3.org/2000/svg" viewBox="0 0 1080 1080"><defs><style>.cls-1{fill:#2e8b57;}</style></defs><title>アートボード 1</title><path d="M392.88,511.91q-11.49,15.57-24.64,30.75a394.72,394.72,0,0,1-31.3,31.86q-25.57,23-49.1,31.68t-44.27,8.71q-21.12,0-33.34-12.6T198,569.71q0-17.79,10.74-35.2a129.24,129.24,0,0,1,27-31.12,147.53,147.53,0,0,1,35.75-22.23q19.45-8.52,36.87-8.52,15.91,0,24.82,6.11T342.12,496a25.06,25.06,0,0,1-6.11,16.3,62.73,62.73,0,0,1-15.75,13.34A121.65,121.65,0,0,1,298.59,536q-12,4.46-23.9,7.78t-22.23,5.56q-10.38,2.22-17,3.71a55.32,55.32,0,0,0-1.85,13.33q0,15.95,8.89,25.94t24.82,10q15.57,0,34.27-9.26t37.61-27q14.44-13.69,27.79-28.71t23.34-28Zm-83.18-32.6a11.21,11.21,0,0,0-7.22-2.22q-9.27,0-20,7.78A111.9,111.9,0,0,0,262.28,504a170.58,170.58,0,0,0-16.67,23.71q-7.23,12.42-9.45,21.67a111.84,111.84,0,0,0,28.9-9.82A127.38,127.38,0,0,0,289.33,524a80.56,80.56,0,0,0,16.85-18.52q6.3-9.81,6.3-18.71C312.48,483.26,311.56,480.79,309.7,479.31Z"/><path d="M439.19,478.57q-17.42,27.42-30,46.86t-20.56,33.16A250.71,250.71,0,0,0,376.76,581q-3.88,8.7-3.89,14.26a13.94,13.94,0,0,0,1.67,7.23,5.46,5.46,0,0,0,5,2.78q7.41,0,20.93-8.53t33.9-29.26q8.14-8.52,15.94-16.86t14.63-16.12q6.85-7.78,12.23-14.08t8.7-10l3.34,2.22q-4.45,5.94-10.93,13.53t-13.9,15.93q-7.41,8.32-15.19,16.48T434,574.15q-21.48,21.5-36.86,30t-28.34,8.53q-12.23,0-18.9-6.67t-6.67-17.42A46.67,46.67,0,0,1,346,573.23a129.28,129.28,0,0,1,9.45-19.82q6.68-11.86,17.78-29.46T401,480.42Zm33.9-77.07a16.48,16.48,0,0,1,5.37,12.23q0,7.41-5.93,13.52t-13.33,6.12a23.47,23.47,0,0,1-14.08-4.26q-5.92-4.26-5.93-12.79a18.3,18.3,0,0,1,6.48-14.26,21.93,21.93,0,0,1,15-5.74A17.36,17.36,0,0,1,473.09,401.5Z"/><path d="M639.62,511.91Q628.13,527.48,615,542.66a393.29,393.29,0,0,1-31.31,31.86q-25.56,23-49.09,31.68t-44.27,8.71q-21.13,0-33.35-12.6t-12.23-32.6q0-17.79,10.75-35.2a129,129,0,0,1,27-31.12,147.39,147.39,0,0,1,35.76-22.23q19.44-8.52,36.86-8.52,15.93,0,24.82,6.11t8.9,17.23a25,25,0,0,1-6.12,16.3A62.5,62.5,0,0,1,567,525.62,121.75,121.75,0,0,1,545.33,536q-12,4.46-23.89,7.78t-22.23,5.56q-10.38,2.22-17,3.71a55.32,55.32,0,0,0-1.85,13.33q0,15.95,8.89,25.94t24.83,10q15.56,0,34.27-9.26t37.6-27q14.45-13.69,27.79-28.71t23.34-28Zm-83.17-32.6a11.24,11.24,0,0,0-7.23-2.22q-9.26,0-20,7.78A111.62,111.62,0,0,0,509,504a172.28,172.28,0,0,0-16.67,23.71q-7.23,12.42-9.44,21.67a111.9,111.9,0,0,0,28.89-9.82A127.06,127.06,0,0,0,536.07,524a80.85,80.85,0,0,0,16.86-18.52q6.29-9.81,6.3-18.71Q559.23,481.53,556.45,479.31Z"/><path class="cls-1" d="M392.88,511.91q-11.49,15.57-24.64,30.75a394.72,394.72,0,0,1-31.3,31.86q-25.57,23-49.1,31.68t-44.27,8.71q-21.12,0-33.34-12.6T198,569.71q0-17.79,10.74-35.2a129.24,129.24,0,0,1,27-31.12,147.53,147.53,0,0,1,35.75-22.23q19.45-8.52,36.87-8.52,15.91,0,24.82,6.11T342.12,496a25.06,25.06,0,0,1-6.11,16.3,62.73,62.73,0,0,1-15.75,13.34A121.65,121.65,0,0,1,298.59,536q-12,4.46-23.9,7.78t-22.23,5.56q-10.38,2.22-17,3.71a55.32,55.32,0,0,0-1.85,13.33q0,15.95,8.89,25.94t24.82,10q15.57,0,34.27-9.26t37.61-27q14.44-13.69,27.79-28.71t23.34-28Zm-83.18-32.6a11.21,11.21,0,0,0-7.22-2.22q-9.27,0-20,7.78A111.9,111.9,0,0,0,262.28,504a170.58,170.58,0,0,0-16.67,23.71q-7.23,12.42-9.45,21.67a111.84,111.84,0,0,0,28.9-9.82A127.38,127.38,0,0,0,289.33,524a80.56,80.56,0,0,0,16.85-18.52q6.3-9.81,6.3-18.71C312.48,483.26,311.56,480.79,309.7,479.31Z"/><path class="cls-1" d="M439.19,478.57q-17.42,27.42-30,46.86t-20.56,33.16A250.71,250.71,0,0,0,376.76,581q-3.88,8.7-3.89,14.26a13.94,13.94,0,0,0,1.67,7.23,5.46,5.46,0,0,0,5,2.78q7.41,0,20.93-8.53t33.9-29.26q8.14-8.52,15.94-16.86t14.63-16.12q6.85-7.78,12.23-14.08t8.7-10l3.34,2.22q-4.45,5.94-10.93,13.53t-13.9,15.93q-7.41,8.32-15.19,16.48T434,574.15q-21.48,21.5-36.86,30t-28.34,8.53q-12.23,0-18.9-6.67t-6.67-17.42A46.67,46.67,0,0,1,346,573.23a129.28,129.28,0,0,1,9.45-19.82q6.68-11.86,17.78-29.46T401,480.42Zm33.9-77.07a16.48,16.48,0,0,1,5.37,12.23q0,7.41-5.93,13.52t-13.33,6.12a23.47,23.47,0,0,1-14.08-4.26q-5.92-4.26-5.93-12.79a18.3,18.3,0,0,1,6.48-14.26,21.93,21.93,0,0,1,15-5.74A17.36,17.36,0,0,1,473.09,401.5Z"/><path class="cls-1" d="M639.62,511.91Q628.13,527.48,615,542.66a393.29,393.29,0,0,1-31.31,31.86q-25.56,23-49.09,31.68t-44.27,8.71q-21.13,0-33.35-12.6t-12.23-32.6q0-17.79,10.75-35.2a129,129,0,0,1,27-31.12,147.39,147.39,0,0,1,35.76-22.23q19.44-8.52,36.86-8.52,15.93,0,24.82,6.11t8.9,17.23a25,25,0,0,1-6.12,16.3A62.5,62.5,0,0,1,567,525.62,121.75,121.75,0,0,1,545.33,536q-12,4.46-23.89,7.78t-22.23,5.56q-10.38,2.22-17,3.71a55.32,55.32,0,0,0-1.85,13.33q0,15.95,8.89,25.94t24.83,10q15.56,0,34.27-9.26t37.6-27q14.45-13.69,27.79-28.71t23.34-28Zm-83.17-32.6a11.24,11.24,0,0,0-7.23-2.22q-9.26,0-20,7.78A111.62,111.62,0,0,0,509,504a172.28,172.28,0,0,0-16.67,23.71q-7.23,12.42-9.44,21.67a111.9,111.9,0,0,0,28.89-9.82A127.06,127.06,0,0,0,536.07,524a80.85,80.85,0,0,0,16.86-18.52q6.29-9.81,6.3-18.71Q559.23,481.53,556.45,479.31Z"/><path d="M187.17,662.46a11.57,11.57,0,0,0-1.51,2.82,56.73,56.73,0,0,1-3.16,6.05,9.58,9.58,0,0,1,2.47-.21l16.64-.28c2.41-.06,2.61-.06,3.58-.48l4.12,4.34a6.53,6.53,0,0,0-1.17,2.68c-6.32,20.21-18.29,33.69-37.4,42.21a10.84,10.84,0,0,0-3.44-4.05c17.88-6.88,30.8-21.32,36.1-40.36l-23.17.34a66.68,66.68,0,0,1-16.44,17.88,10.05,10.05,0,0,0-3.85-3.51c6.74-4.26,12.24-10.31,17.26-18.91,2.75-4.74,4.2-8.18,4.33-10Zm21.25-2.2a47.2,47.2,0,0,1,7,10.38L212,672.7a48.19,48.19,0,0,0-7-10.59Zm7.7-3.85a56,56,0,0,1,7.08,10.45l-3.44,2a48.17,48.17,0,0,0-7-10.52Z"/><path d="M238.81,663.56a38.52,38.52,0,0,0-.27,5.7v18.5a37.47,37.47,0,0,0,.27,5.71h-5.7a43,43,0,0,0,.27-5.78V669.33a41.54,41.54,0,0,0-.27-5.77Zm30.46,0a31.16,31.16,0,0,0-.34,6v8.11c0,10.93-.48,17-1.72,21-2,6.47-6.33,11.48-13.06,15.27a54.39,54.39,0,0,1-12.52,5,13.08,13.08,0,0,0-2.89-4.75c6.19-1.37,9.49-2.54,13.07-4.67,6.39-3.72,9.69-8.12,11-14.51.75-3.92,1-7.08,1-17.53v-7.77a39.19,39.19,0,0,0-.27-6.05Z"/><path d="M282.33,687.42a49,49,0,0,0,8.52.41H330.8a53.25,53.25,0,0,0,8.32-.35v5.57a80.83,80.83,0,0,0-8.39-.27H290.85a77,77,0,0,0-8.52.27Z"/><path d="M339.48,710.66c5.37-.21,13.62-2.34,20-5.3,13.27-5.91,22.48-16,28.05-30.6a13.68,13.68,0,0,0,4.2,4.06c-5.5,12-11.9,20-21,26.27-7.09,4.81-14.17,7.63-25.65,10.24a35.56,35.56,0,0,0-4.13,1.1Zm4.4-42.63A89.28,89.28,0,0,1,360.45,681l-3.57,4.26a75.68,75.68,0,0,0-16.37-13.47Z"/><path d="M410.29,663.56a36.82,36.82,0,0,0-.28,5.7v18.5a35.82,35.82,0,0,0,.28,5.71h-5.71a43,43,0,0,0,.27-5.78V669.33a41.54,41.54,0,0,0-.27-5.77Zm30.45,0a31.16,31.16,0,0,0-.34,6v8.11c0,10.93-.48,17-1.72,21-2,6.47-6.32,11.48-13.06,15.27a54.39,54.39,0,0,1-12.52,5,13,13,0,0,0-2.88-4.75c6.18-1.37,9.49-2.54,13.06-4.67,6.39-3.72,9.69-8.12,11-14.51.76-3.92,1-7.08,1-17.53v-7.77a39.19,39.19,0,0,0-.27-6.05Z"/><path d="M468.74,686a9.43,9.43,0,0,0-.41,1.17l-.41,1.37-.35,1.52a61.42,61.42,0,0,1-12,23.72,15.12,15.12,0,0,0-4.54-3c4.06-3.92,7.15-9.07,10.11-16.91a35.37,35.37,0,0,0,2.41-9.35Zm9.63-16.84c0-4.2-.07-5.44-.42-7h5.64a40.27,40.27,0,0,0-.34,7.15v4.47h17.32a45.6,45.6,0,0,0,8.05-.41v5.22a54.37,54.37,0,0,0-7.91-.34H483.25v34.24a42.15,42.15,0,0,0,.34,7.29H478a37.62,37.62,0,0,0,.42-7.22V678.27H461.52a54.46,54.46,0,0,0-7.91.34v-5.22a44.68,44.68,0,0,0,8,.41h16.78Zm19.32,15.47a48.79,48.79,0,0,0,2.54,7.76c3.23,8.05,6.39,13.55,10.66,18.43a14.76,14.76,0,0,0-4.33,3.23c-4.82-6.32-8.46-13.61-12-23.65-.62-1.86-1.24-3.37-1.72-4.47Zm2-25.51a55.51,55.51,0,0,1,7,10.38l-3.5,2a55.87,55.87,0,0,0-6.95-10.59Zm8.53-2.55a58.24,58.24,0,0,1,7.08,10.73l-3.44,2a50.54,50.54,0,0,0-7-10.79Z"/><path d="M520.36,710.66c5.36-.21,13.62-2.34,20-5.3,13.27-5.91,22.48-16,28-30.6a13.68,13.68,0,0,0,4.2,4.06c-5.5,12-11.9,20-21,26.27-7.09,4.81-14.17,7.63-25.65,10.24a35.56,35.56,0,0,0-4.13,1.1Zm4.4-42.63A89.28,89.28,0,0,1,541.33,681l-3.57,4.26a75.92,75.92,0,0,0-16.37-13.47Z"/><path d="M594.37,681.28c1.82-3.85,2.48-5.78,2.64-7.54l4.4.77a12.29,12.29,0,0,0-1.43,3c-.71,1.76-1.43,3.25-1.7,3.74a10.25,10.25,0,0,1,1.15-.05c8.8-.44,14.3-1.1,17.32-2.09l.33,3.74a17.09,17.09,0,0,0-2.2.27,177.5,177.5,0,0,1-18.14,1.43,40.49,40.49,0,0,1-5,7.81c-.55.66-1.65,1.92-1.87,2.09-.39.28-.66.5-.72.55a.05.05,0,0,1-.05.06v.05a.38.38,0,0,0,.11.17c2-1.54,2-1.54,2.53-1.93a14.62,14.62,0,0,1,8.3-2.69c4.07,0,6.54,2,7.26,6.1,4-1.6,7.15-2.75,9.57-3.63,2.69-.93,2.86-1,3.74-1.59l1.76,3.85c-2.86.49-7.81,2.14-14.69,4.83.11,1.43.11,2,.11,3.36,0,.71,0,1.92-.05,3s-.06,2-.06,2.48a12,12,0,0,0,.11,2l-3.73.05c.16-1.21.33-4.56.33-7.92a13.25,13.25,0,0,0-.06-1.65C596.9,705,594,707.62,594,710.92c0,3.63,3.41,5.22,11.17,5.22,5.44,0,11.54-.88,14.68-2.14l.49,4.23a22,22,0,0,0-2.2.28,85.87,85.87,0,0,1-13.36,1.1c-9.84,0-14.63-2.81-14.63-8.47,0-3,1.87-5.89,5.61-8.69a42.06,42.06,0,0,1,8.2-4.4c-.44-3-1.76-4.34-4.35-4.34-3.46,0-7.81,2-12.26,5.82a18.15,18.15,0,0,0-4.24,4.57L580.07,701c3.8-2.92,8.36-8.69,12.32-15.73l.5-.82a6.64,6.64,0,0,1-1,.11c-.88,0-6.05-.11-8.08-.17h-.88a8.87,8.87,0,0,0-1.21.06l.05-3.8a76.1,76.1,0,0,0,11.77.61Z"/><path d="M659,663.08a21.75,21.75,0,0,0-.41-4.34h5.3a15.09,15.09,0,0,0-.42,4.4v3.58H683a48.06,48.06,0,0,0,7.43-.41v4.74a53.89,53.89,0,0,0-7.43-.34H638.74c0,19-.41,26.81-1.65,34.1a43.69,43.69,0,0,1-5.36,15.61,18,18,0,0,0-3.85-3.16c5.15-8.8,6.39-16.78,6.39-41.6a75.18,75.18,0,0,0-.34-9.28,53.47,53.47,0,0,0,6.94.34H659Zm-19.66,48.74c3.37-6.05,4.88-12,5.84-22.48l4.34,1.17c-1.31,11.14-2.55,16-6.06,23.79Zm20.42-28.46a33.6,33.6,0,0,0-.41,6.26v24.61c0,1.1.2,1.44,1.1,1.79a22.92,22.92,0,0,0,5.57.41c5.91,0,7.63-.41,8.32-1.86s1.17-6.39,1.17-10.65V702.2a16,16,0,0,0,4.4,1.72c-.49,8.59-1.31,12.85-2.82,14.5s-4.13,2.14-10.8,2.14c-9.69,0-11.34-.69-11.34-4.75V689.55a33.05,33.05,0,0,0-.42-6.19Zm12.31,4.26a60.33,60.33,0,0,0-16.57-11.34l2.89-3a86.62,86.62,0,0,1,16.7,10.87Zm14.5,25.65c-2-9.83-3.64-14.51-7.9-22.76l4-1.72a99.19,99.19,0,0,1,8.38,22.55Z"/><path d="M704.2,666.79a39.78,39.78,0,0,0-.41-7h5.09a43.52,43.52,0,0,0-.42,6.94v6.67h2.14a26.59,26.59,0,0,0,4.33-.28v4.4a29.5,29.5,0,0,0-4.33-.27h-2.14v12.31a52.88,52.88,0,0,0,5.85-3l.21,4.06c-2.69,1.44-3.58,1.92-6.06,3.09V716.5c0,3.78-1.37,4.67-7.08,4.67-1.44,0-2.2,0-4-.13a14,14,0,0,0-.9-4.27,41.86,41.86,0,0,0,5.92.55c1.44,0,1.85-.34,1.85-1.3V695.6c-2.89,1.23-3,1.3-5.16,2.13a22.44,22.44,0,0,0-2.95,1.24l-1.24-4.54c2.34-.35,3.37-.69,9.35-3.1V677.24h-3.92a36.12,36.12,0,0,0-4.6.27V673a22.83,22.83,0,0,0,4.6.35h3.92Zm19,16.16a56.83,56.83,0,0,0-6.47.27V679.1a36.74,36.74,0,0,0,6.19.34H742.5a51.86,51.86,0,0,0,6.67-13l4.19,1.45c-3.71,7.15-4,7.56-6.74,11.55h3.24a28.46,28.46,0,0,0,6-.41v4.19a56.27,56.27,0,0,0-6.4-.27H730.33c-.28,3.09-.34,3.78-.62,5.84h19.94a48.88,48.88,0,0,0,7.49-.41v4.47a58,58,0,0,0-7.49-.42H729c-.41,2.07-.75,3.24-1.3,5.16h15.74a36.77,36.77,0,0,0,5.78-.27l2.2,2.81a21.25,21.25,0,0,0-1.65,2.27,53.59,53.59,0,0,1-8.46,9.08,54.72,54.72,0,0,0,17.33,6.12,24.24,24.24,0,0,0-2.27,4.26c-7.84-2.27-12.93-4.47-18.29-7.9a55.46,55.46,0,0,1-17.47,7.76,9.52,9.52,0,0,0-2.4-3.71,48,48,0,0,0,16.36-6.53,41.26,41.26,0,0,1-8.73-8.94,50.48,50.48,0,0,1-13.68,18.7,9.55,9.55,0,0,0-3-3.23,39.92,39.92,0,0,0,10-11.14A44.58,44.58,0,0,0,725,692.43h-2.2a48.53,48.53,0,0,0-7.09.35v-4.33a50.66,50.66,0,0,0,7.15.34h2.82c.28-2,.42-3.51.55-5.84Zm31.56-19.6c-1.24.21-1.24.21-3.44.69-8.46,2-22.76,3.57-35.48,3.92a9.41,9.41,0,0,0-1.44-3.92h1.72c13.4,0,30.18-2.2,35.47-4.61Zm-31.43,15.47a29.72,29.72,0,0,0-4.46-8.73l3.5-1.38a34.54,34.54,0,0,1,4.27,8.6Zm5.85,22.35a37.78,37.78,0,0,0,8.59,8.11,32.87,32.87,0,0,0,7.7-8.11Zm5.57-23a37.12,37.12,0,0,0-4-9.42l3.51-1a37.32,37.32,0,0,1,4,9.22Z"/><path d="M788.76,677.32a19,19,0,0,0-.22-3.19h4.12a45.71,45.71,0,0,0-.27,6.87v.61c10.39-.06,14.62-.17,16.44-.39v3.91a97.15,97.15,0,0,0-10.5-.28c-.83,0-1.43,0-5.89.11v10.89a15.68,15.68,0,0,1,1.32,6.49,17.69,17.69,0,0,1-7.37,14.35,34.79,34.79,0,0,1-8.69,4.46,11.91,11.91,0,0,0-2.42-3.47c4.29-1.37,6.71-2.47,8.91-4.12A14.24,14.24,0,0,0,790.35,702a7.65,7.65,0,0,1-1.48,2.7,8.6,8.6,0,0,1-6.93,3c-5.28,0-9-3.63-9-8.69,0-5.22,4.12-9.07,9.73-9.07a8.46,8.46,0,0,1,6.38,2.47c0-.77,0-1,0-3,0-.22-.06-.77-.06-1.43V685c-11,.22-22.16.77-25.84,1.37l-.17-4c1,0,1.38,0,2.2,0,1.6,0,1.6,0,10.45-.33,5.28-.22,9.57-.33,13.31-.44Zm-2.37,16.55a7.06,7.06,0,0,0-3.68-.88,5.82,5.82,0,0,0-6.11,5.77,5.32,5.32,0,0,0,5.67,5.45,6.16,6.16,0,0,0,6.43-6.49A4,4,0,0,0,786.39,693.87Z"/><path d="M819.2,677.32a25.77,25.77,0,0,0,5.17.33c4.57,0,11.88-.33,16.83-.72a5.71,5.71,0,0,0,2.64-.6l2.31,3c-.77.39-1,.61-2.81,2.31-7.59,7.43-14.24,13.15-18.09,15.62l.11.17A27.82,27.82,0,0,1,838.83,694c9.19,0,15.07,4.5,15.07,11.54,0,8.58-8,14.25-20.18,14.25-7.75,0-12.21-2.86-12.21-7.92,0-3.69,3.41-6.44,8-6.44a11.09,11.09,0,0,1,9.07,4.51,15.84,15.84,0,0,1,2.53,5.28c5.77-1.59,8.8-5,8.8-9.62,0-5.28-4.4-8.42-11.83-8.42a35.27,35.27,0,0,0-23.15,9.41l-2.47-3.52a62.34,62.34,0,0,0,7.7-5.61c5.88-4.67,14.57-12.32,18.36-16.06l.77-.77.22-.22.22-.22-.11-.11a2,2,0,0,0-.49.06c-1.76.33-8.36.71-16.72,1a27.08,27.08,0,0,0-3,.27Zm10.34,31.29c-2.75,0-4.45,1.32-4.45,3.41a3.74,3.74,0,0,0,2.2,3.35,14,14,0,0,0,6.16,1.27,19.85,19.85,0,0,0,4-.39C836.25,711.25,833.5,708.61,829.54,708.61Z"/><path d="M892.74,659.78a46,46,0,0,0,11.55,12.3,74,74,0,0,0,19,11,14.7,14.7,0,0,0-2.68,4.4,94.43,94.43,0,0,1-19.11-12,56.87,56.87,0,0,1-11-11.76A59.13,59.13,0,0,1,880.15,675a75.49,75.49,0,0,1-18.56,12.1,13.9,13.9,0,0,0-2.89-3.92A71.78,71.78,0,0,0,876.92,672a50.22,50.22,0,0,0,10.93-12.23ZM869.5,698.14a59.91,59.91,0,0,0-7.84.41V693.6a57.93,57.93,0,0,0,7.84.42h42.35a57.22,57.22,0,0,0,7.84-.42v4.95a60.66,60.66,0,0,0-7.84-.41H887.17c-3.78,8.25-5.09,10.8-8.6,16.23,9.49-.62,16.64-1.31,26.82-2.55-4.13-4.47-5.37-5.7-8.39-8.52l3.57-2.2a147.64,147.64,0,0,1,16.64,18.15l-3.78,2.82c-2.68-3.78-3.57-5-5-6.74-12.24,1.65-22.62,2.75-33.34,3.58-8.53.68-9.9.82-11.62,1.23l-.83-5.22a31.25,31.25,0,0,0,3.51.2c1.1,0,1.1,0,7.29-.41a103.39,103.39,0,0,0,8.73-16.57ZM873.9,681a35.62,35.62,0,0,0,5.43.28h22.21a40.85,40.85,0,0,0,5.77-.28v4.61a41.49,41.49,0,0,0-5.77-.28H879.26a38.78,38.78,0,0,0-5.36.28Z"/><path class="cls-1" d="M187.17,662.46a11.57,11.57,0,0,0-1.51,2.82,56.73,56.73,0,0,1-3.16,6.05,9.58,9.58,0,0,1,2.47-.21l16.64-.28c2.41-.06,2.61-.06,3.58-.48l4.12,4.34a6.53,6.53,0,0,0-1.17,2.68c-6.32,20.21-18.29,33.69-37.4,42.21a10.84,10.84,0,0,0-3.44-4.05c17.88-6.88,30.8-21.32,36.1-40.36l-23.17.34a66.68,66.68,0,0,1-16.44,17.88,10.05,10.05,0,0,0-3.85-3.51c6.74-4.26,12.24-10.31,17.26-18.91,2.75-4.74,4.2-8.18,4.33-10Zm21.25-2.2a47.2,47.2,0,0,1,7,10.38L212,672.7a48.19,48.19,0,0,0-7-10.59Zm7.7-3.85a56,56,0,0,1,7.08,10.45l-3.44,2a48.17,48.17,0,0,0-7-10.52Z"/><path class="cls-1" d="M238.81,663.56a38.52,38.52,0,0,0-.27,5.7v18.5a37.47,37.47,0,0,0,.27,5.71h-5.7a43,43,0,0,0,.27-5.78V669.33a41.54,41.54,0,0,0-.27-5.77Zm30.46,0a31.16,31.16,0,0,0-.34,6v8.11c0,10.93-.48,17-1.72,21-2,6.47-6.33,11.48-13.06,15.27a54.39,54.39,0,0,1-12.52,5,13.08,13.08,0,0,0-2.89-4.75c6.19-1.37,9.49-2.54,13.07-4.67,6.39-3.72,9.69-8.12,11-14.51.75-3.92,1-7.08,1-17.53v-7.77a39.19,39.19,0,0,0-.27-6.05Z"/><path class="cls-1" d="M282.33,687.42a49,49,0,0,0,8.52.41H330.8a53.25,53.25,0,0,0,8.32-.35v5.57a80.83,80.83,0,0,0-8.39-.27H290.85a77,77,0,0,0-8.52.27Z"/><path class="cls-1" d="M339.48,710.66c5.37-.21,13.62-2.34,20-5.3,13.27-5.91,22.48-16,28.05-30.6a13.68,13.68,0,0,0,4.2,4.06c-5.5,12-11.9,20-21,26.27-7.09,4.81-14.17,7.63-25.65,10.24a35.56,35.56,0,0,0-4.13,1.1Zm4.4-42.63A89.28,89.28,0,0,1,360.45,681l-3.57,4.26a75.68,75.68,0,0,0-16.37-13.47Z"/><path class="cls-1" d="M410.29,663.56a36.82,36.82,0,0,0-.28,5.7v18.5a35.82,35.82,0,0,0,.28,5.71h-5.71a43,43,0,0,0,.27-5.78V669.33a41.54,41.54,0,0,0-.27-5.77Zm30.45,0a31.16,31.16,0,0,0-.34,6v8.11c0,10.93-.48,17-1.72,21-2,6.47-6.32,11.48-13.06,15.27a54.39,54.39,0,0,1-12.52,5,13,13,0,0,0-2.88-4.75c6.18-1.37,9.49-2.54,13.06-4.67,6.39-3.72,9.69-8.12,11-14.51.76-3.92,1-7.08,1-17.53v-7.77a39.19,39.19,0,0,0-.27-6.05Z"/><path class="cls-1" d="M468.74,686a9.43,9.43,0,0,0-.41,1.17l-.41,1.37-.35,1.52a61.42,61.42,0,0,1-12,23.72,15.12,15.12,0,0,0-4.54-3c4.06-3.92,7.15-9.07,10.11-16.91a35.37,35.37,0,0,0,2.41-9.35Zm9.63-16.84c0-4.2-.07-5.44-.42-7h5.64a40.27,40.27,0,0,0-.34,7.15v4.47h17.32a45.6,45.6,0,0,0,8.05-.41v5.22a54.37,54.37,0,0,0-7.91-.34H483.25v34.24a42.15,42.15,0,0,0,.34,7.29H478a37.62,37.62,0,0,0,.42-7.22V678.27H461.52a54.46,54.46,0,0,0-7.91.34v-5.22a44.68,44.68,0,0,0,8,.41h16.78Zm19.32,15.47a48.79,48.79,0,0,0,2.54,7.76c3.23,8.05,6.39,13.55,10.66,18.43a14.76,14.76,0,0,0-4.33,3.23c-4.82-6.32-8.46-13.61-12-23.65-.62-1.86-1.24-3.37-1.72-4.47Zm2-25.51a55.51,55.51,0,0,1,7,10.38l-3.5,2a55.87,55.87,0,0,0-6.95-10.59Zm8.53-2.55a58.24,58.24,0,0,1,7.08,10.73l-3.44,2a50.54,50.54,0,0,0-7-10.79Z"/><path class="cls-1" d="M520.36,710.66c5.36-.21,13.62-2.34,20-5.3,13.27-5.91,22.48-16,28-30.6a13.68,13.68,0,0,0,4.2,4.06c-5.5,12-11.9,20-21,26.27-7.09,4.81-14.17,7.63-25.65,10.24a35.56,35.56,0,0,0-4.13,1.1Zm4.4-42.63A89.28,89.28,0,0,1,541.33,681l-3.57,4.26a75.92,75.92,0,0,0-16.37-13.47Z"/><path class="cls-1" d="M594.37,681.28c1.82-3.85,2.48-5.78,2.64-7.54l4.4.77a12.29,12.29,0,0,0-1.43,3c-.71,1.76-1.43,3.25-1.7,3.74a10.25,10.25,0,0,1,1.15-.05c8.8-.44,14.3-1.1,17.32-2.09l.33,3.74a17.09,17.09,0,0,0-2.2.27,177.5,177.5,0,0,1-18.14,1.43,40.49,40.49,0,0,1-5,7.81c-.55.66-1.65,1.92-1.87,2.09-.39.28-.66.5-.72.55a.05.05,0,0,1-.05.06v.05a.38.38,0,0,0,.11.17c2-1.54,2-1.54,2.53-1.93a14.62,14.62,0,0,1,8.3-2.69c4.07,0,6.54,2,7.26,6.1,4-1.6,7.15-2.75,9.57-3.63,2.69-.93,2.86-1,3.74-1.59l1.76,3.85c-2.86.49-7.81,2.14-14.69,4.83.11,1.43.11,2,.11,3.36,0,.71,0,1.92-.05,3s-.06,2-.06,2.48a12,12,0,0,0,.11,2l-3.73.05c.16-1.21.33-4.56.33-7.92a13.25,13.25,0,0,0-.06-1.65C596.9,705,594,707.62,594,710.92c0,3.63,3.41,5.22,11.17,5.22,5.44,0,11.54-.88,14.68-2.14l.49,4.23a22,22,0,0,0-2.2.28,85.87,85.87,0,0,1-13.36,1.1c-9.84,0-14.63-2.81-14.63-8.47,0-3,1.87-5.89,5.61-8.69a42.06,42.06,0,0,1,8.2-4.4c-.44-3-1.76-4.34-4.35-4.34-3.46,0-7.81,2-12.26,5.82a18.15,18.15,0,0,0-4.24,4.57L580.07,701c3.8-2.92,8.36-8.69,12.32-15.73l.5-.82a6.64,6.64,0,0,1-1,.11c-.88,0-6.05-.11-8.08-.17h-.88a8.87,8.87,0,0,0-1.21.06l.05-3.8a76.1,76.1,0,0,0,11.77.61Z"/><path class="cls-1" d="M659,663.08a21.75,21.75,0,0,0-.41-4.34h5.3a15.09,15.09,0,0,0-.42,4.4v3.58H683a48.06,48.06,0,0,0,7.43-.41v4.74a53.89,53.89,0,0,0-7.43-.34H638.74c0,19-.41,26.81-1.65,34.1a43.69,43.69,0,0,1-5.36,15.61,18,18,0,0,0-3.85-3.16c5.15-8.8,6.39-16.78,6.39-41.6a75.18,75.18,0,0,0-.34-9.28,53.47,53.47,0,0,0,6.94.34H659Zm-19.66,48.74c3.37-6.05,4.88-12,5.84-22.48l4.34,1.17c-1.31,11.14-2.55,16-6.06,23.79Zm20.42-28.46a33.6,33.6,0,0,0-.41,6.26v24.61c0,1.1.2,1.44,1.1,1.79a22.92,22.92,0,0,0,5.57.41c5.91,0,7.63-.41,8.32-1.86s1.17-6.39,1.17-10.65V702.2a16,16,0,0,0,4.4,1.72c-.49,8.59-1.31,12.85-2.82,14.5s-4.13,2.14-10.8,2.14c-9.69,0-11.34-.69-11.34-4.75V689.55a33.05,33.05,0,0,0-.42-6.19Zm12.31,4.26a60.33,60.33,0,0,0-16.57-11.34l2.89-3a86.62,86.62,0,0,1,16.7,10.87Zm14.5,25.65c-2-9.83-3.64-14.51-7.9-22.76l4-1.72a99.19,99.19,0,0,1,8.38,22.55Z"/><path class="cls-1" d="M704.2,666.79a39.78,39.78,0,0,0-.41-7h5.09a43.52,43.52,0,0,0-.42,6.94v6.67h2.14a26.59,26.59,0,0,0,4.33-.28v4.4a29.5,29.5,0,0,0-4.33-.27h-2.14v12.31a52.88,52.88,0,0,0,5.85-3l.21,4.06c-2.69,1.44-3.58,1.92-6.06,3.09V716.5c0,3.78-1.37,4.67-7.08,4.67-1.44,0-2.2,0-4-.13a14,14,0,0,0-.9-4.27,41.86,41.86,0,0,0,5.92.55c1.44,0,1.85-.34,1.85-1.3V695.6c-2.89,1.23-3,1.3-5.16,2.13a22.44,22.44,0,0,0-2.95,1.24l-1.24-4.54c2.34-.35,3.37-.69,9.35-3.1V677.24h-3.92a36.12,36.12,0,0,0-4.6.27V673a22.83,22.83,0,0,0,4.6.35h3.92Zm19,16.16a56.83,56.83,0,0,0-6.47.27V679.1a36.74,36.74,0,0,0,6.19.34H742.5a51.86,51.86,0,0,0,6.67-13l4.19,1.45c-3.71,7.15-4,7.56-6.74,11.55h3.24a28.46,28.46,0,0,0,6-.41v4.19a56.27,56.27,0,0,0-6.4-.27H730.33c-.28,3.09-.34,3.78-.62,5.84h19.94a48.88,48.88,0,0,0,7.49-.41v4.47a58,58,0,0,0-7.49-.42H729c-.41,2.07-.75,3.24-1.3,5.16h15.74a36.77,36.77,0,0,0,5.78-.27l2.2,2.81a21.25,21.25,0,0,0-1.65,2.27,53.59,53.59,0,0,1-8.46,9.08,54.72,54.72,0,0,0,17.33,6.12,24.24,24.24,0,0,0-2.27,4.26c-7.84-2.27-12.93-4.47-18.29-7.9a55.46,55.46,0,0,1-17.47,7.76,9.52,9.52,0,0,0-2.4-3.71,48,48,0,0,0,16.36-6.53,41.26,41.26,0,0,1-8.73-8.94,50.48,50.48,0,0,1-13.68,18.7,9.55,9.55,0,0,0-3-3.23,39.92,39.92,0,0,0,10-11.14A44.58,44.58,0,0,0,725,692.43h-2.2a48.53,48.53,0,0,0-7.09.35v-4.33a50.66,50.66,0,0,0,7.15.34h2.82c.28-2,.42-3.51.55-5.84Zm31.56-19.6c-1.24.21-1.24.21-3.44.69-8.46,2-22.76,3.57-35.48,3.92a9.41,9.41,0,0,0-1.44-3.92h1.72c13.4,0,30.18-2.2,35.47-4.61Zm-31.43,15.47a29.72,29.72,0,0,0-4.46-8.73l3.5-1.38a34.54,34.54,0,0,1,4.27,8.6Zm5.85,22.35a37.78,37.78,0,0,0,8.59,8.11,32.87,32.87,0,0,0,7.7-8.11Zm5.57-23a37.12,37.12,0,0,0-4-9.42l3.51-1a37.32,37.32,0,0,1,4,9.22Z"/><path class="cls-1" d="M788.76,677.32a19,19,0,0,0-.22-3.19h4.12a45.71,45.71,0,0,0-.27,6.87v.61c10.39-.06,14.62-.17,16.44-.39v3.91a97.15,97.15,0,0,0-10.5-.28c-.83,0-1.43,0-5.89.11v10.89a15.68,15.68,0,0,1,1.32,6.49,17.69,17.69,0,0,1-7.37,14.35,34.79,34.79,0,0,1-8.69,4.46,11.91,11.91,0,0,0-2.42-3.47c4.29-1.37,6.71-2.47,8.91-4.12A14.24,14.24,0,0,0,790.35,702a7.65,7.65,0,0,1-1.48,2.7,8.6,8.6,0,0,1-6.93,3c-5.28,0-9-3.63-9-8.69,0-5.22,4.12-9.07,9.73-9.07a8.46,8.46,0,0,1,6.38,2.47c0-.77,0-1,0-3,0-.22-.06-.77-.06-1.43V685c-11,.22-22.16.77-25.84,1.37l-.17-4c1,0,1.38,0,2.2,0,1.6,0,1.6,0,10.45-.33,5.28-.22,9.57-.33,13.31-.44Zm-2.37,16.55a7.06,7.06,0,0,0-3.68-.88,5.82,5.82,0,0,0-6.11,5.77,5.32,5.32,0,0,0,5.67,5.45,6.16,6.16,0,0,0,6.43-6.49A4,4,0,0,0,786.39,693.87Z"/><path class="cls-1" d="M819.2,677.32a25.77,25.77,0,0,0,5.17.33c4.57,0,11.88-.33,16.83-.72a5.71,5.71,0,0,0,2.64-.6l2.31,3c-.77.39-1,.61-2.81,2.31-7.59,7.43-14.24,13.15-18.09,15.62l.11.17A27.82,27.82,0,0,1,838.83,694c9.19,0,15.07,4.5,15.07,11.54,0,8.58-8,14.25-20.18,14.25-7.75,0-12.21-2.86-12.21-7.92,0-3.69,3.41-6.44,8-6.44a11.09,11.09,0,0,1,9.07,4.51,15.84,15.84,0,0,1,2.53,5.28c5.77-1.59,8.8-5,8.8-9.62,0-5.28-4.4-8.42-11.83-8.42a35.27,35.27,0,0,0-23.15,9.41l-2.47-3.52a62.34,62.34,0,0,0,7.7-5.61c5.88-4.67,14.57-12.32,18.36-16.06l.77-.77.22-.22.22-.22-.11-.11a2,2,0,0,0-.49.06c-1.76.33-8.36.71-16.72,1a27.08,27.08,0,0,0-3,.27Zm10.34,31.29c-2.75,0-4.45,1.32-4.45,3.41a3.74,3.74,0,0,0,2.2,3.35,14,14,0,0,0,6.16,1.27,19.85,19.85,0,0,0,4-.39C836.25,711.25,833.5,708.61,829.54,708.61Z"/><path class="cls-1" d="M892.74,659.78a46,46,0,0,0,11.55,12.3,74,74,0,0,0,19,11,14.7,14.7,0,0,0-2.68,4.4,94.43,94.43,0,0,1-19.11-12,56.87,56.87,0,0,1-11-11.76A59.13,59.13,0,0,1,880.15,675a75.49,75.49,0,0,1-18.56,12.1,13.9,13.9,0,0,0-2.89-3.92A71.78,71.78,0,0,0,876.92,672a50.22,50.22,0,0,0,10.93-12.23ZM869.5,698.14a59.91,59.91,0,0,0-7.84.41V693.6a57.93,57.93,0,0,0,7.84.42h42.35a57.22,57.22,0,0,0,7.84-.42v4.95a60.66,60.66,0,0,0-7.84-.41H887.17c-3.78,8.25-5.09,10.8-8.6,16.23,9.49-.62,16.64-1.31,26.82-2.55-4.13-4.47-5.37-5.7-8.39-8.52l3.57-2.2a147.64,147.64,0,0,1,16.64,18.15l-3.78,2.82c-2.68-3.78-3.57-5-5-6.74-12.24,1.65-22.62,2.75-33.34,3.58-8.53.68-9.9.82-11.62,1.23l-.83-5.22a31.25,31.25,0,0,0,3.51.2c1.1,0,1.1,0,7.29-.41a103.39,103.39,0,0,0,8.73-16.57ZM873.9,681a35.62,35.62,0,0,0,5.43.28h22.21a40.85,40.85,0,0,0,5.77-.28v4.61a41.49,41.49,0,0,0-5.77-.28H879.26a38.78,38.78,0,0,0-5.36.28Z"/><path class="cls-1" d="M637,510c-1.81,2.88-2.48,4.54-2,5s1.36,0,3-1A1034.63,1034.63,0,0,0,741,408c50.19-59.72,62.22-88,56-114-1.59-6.65-4.68-19.54-15-25-29.28-15.49-93.62,41.07-130,93-43.69,62.37-75.21,158.3-39,221,5.2,9,15.32,26,33,30,22.39,5.09,43.28-13.72,87-52,41.7-36.51,72.82-63.28,76-66,31.42-26.87,84.1-56.93,176-65a249.9,249.9,0,0,0-58-1c-24,2.44-45.1,8.23-48,2-1.18-2.54,1.18-5.93,4-10,7.81-11.26,19.55-14.88,24-16-52.68,7.94-84.6,27.62-101,40-23.2,17.51-33.8,28.16-42,38-15,18-12,13-22,30-12.25,20.83-31.63,52.44-39,60-14.14,14.51-31.17,26-43,22-22.71-7.71-22.5-98.34,5-175.9,31.25-88.21,96.49-153.9,106-148.1s-22.43,90.28-63,142c-5,6.43-18.75,24.22-39,52C655.31,483.78,644.32,499.45,637,510Z"/></svg>